<svg width="400" height="400" viewBox="0 0 400 400" xmlns="http://www.w3.org/2000/svg">
<defs>
    <filter id="shadow" x="-20%" y="-20%" width="140%" height="140%">
        <feDropShadow dx="2" dy="4" stdDeviation="3" flood-opacity="0.3"/>
    </filter>
    <filter id="glow" x="-50%" y="-50%" width="200%" height="200%">
        <feGaussianBlur stdDeviation="8" result="blur"/>
        <feMerge><feMergeNode in="blur"/><feMergeNode in="SourceGraphic"/></feMerge>
    </filter>
    <linearGradient id="rainbow-body" x1="0%" y1="0%" x2="100%" y2="100%">
        <stop offset="0%" stop-color="#FF6B6B"/><stop offset="25%" stop-color="#FFE66D"/>
        <stop offset="50%" stop-color="#4ECDC4"/><stop offset="75%" stop-color="#45B7D1"/>
        <stop offset="100%" stop-color="#DDA0DD"/>
    </linearGradient>
    <radialGradient id="galaxy-body" cx="30%" cy="30%">
        <stop offset="0%" stop-color="#E6E6FA"/><stop offset="50%" stop-color="#9370DB"/>
        <stop offset="100%" stop-color="#1A0033"/>
    </radialGradient>
    <linearGradient id="holo-body" x1="0%" y1="0%" x2="100%" y2="100%">
        <stop offset="0%" stop-color="#FF00FF"/><stop offset="50%" stop-color="#00FFFF"/>
        <stop offset="100%" stop-color="#FFFF00"/>
    </linearGradient>
    <linearGradient id="sky-gradient" x1="0%" y1="0%" x2="0%" y2="100%">
        <stop offset="0%" stop-color="#87CEEB"/><stop offset="100%" stop-color="#E0F4FF"/>
    </linearGradient>
    <linearGradient id="grass-gradient" x1="0%" y1="0%" x2="0%" y2="100%">
        <stop offset="0%" stop-color="#90EE90"/><stop offset="100%" stop-color="#228B22"/>
    </linearGradient>
    <linearGradient id="sunset-gradient" x1="0%" y1="0%" x2="0%" y2="100%">
        <stop offset="0%" stop-color="#FF6B6B"/><stop offset="50%" stop-color="#FFE66D"/>
        <stop offset="100%" stop-color="#4ECDC4"/>
    </linearGradient>
    <linearGradient id="aurora-gradient" x1="0%" y1="0%" x2="100%" y2="100%">
        <stop offset="0%" stop-color="#0D1B2A"/><stop offset="30%" stop-color="#00FF7F"/>
        <stop offset="70%" stop-color="#FF00FF"/><stop offset="100%" stop-color="#0D1B2A"/>
    </linearGradient>
    <radialGradient id="multiverse-gradient" cx="50%" cy="50%">
        <stop offset="0%" stop-color="#FFD700"/><stop offset="40%" stop-color="#FF00FF"/>
        <stop offset="70%" stop-color="#00FFFF"/><stop offset="100%" stop-color="#000"/>
    </radialGradient>
    <linearGradient id="rift-gradient" x1="0%" y1="0%" x2="100%" y2="100%">
        <stop offset="0%" stop-color="#000"/><stop offset="30%" stop-color="#9400D3"/>
        <stop offset="50%" stop-color="#00FFFF"/><stop offset="70%" stop-color="#9400D3"/>
        <stop offset="100%" stop-color="#000"/>
    </linearGradient>
    <linearGradient id="heaven-gradient" x1="0%" y1="0%" x2="0%" y2="100%">
        <stop offset="0%" stop-color="#FFF"/><stop offset="50%" stop-color="#FFD700" stop-opacity="0.3"/>
        <stop offset="100%" stop-color="#F0F8FF"/>
    </linearGradient>
    <clipPath id="head-clip"><ellipse cx="200" cy="200" rx="110" ry="115"/></clipPath>
</defs>
<rect width="400" height="400" fill="#0D1B2A"/>
<circle cx="62" cy="58" r="1" fill="white" opacity="0.4"/>
<circle cx="124" cy="116" r="2" fill="white" opacity="0.5"/>
<circle cx="186" cy="174" r="1" fill="white" opacity="0.6000000000000001"/>
<circle cx="248" cy="232" r="2" fill="white" opacity="0.7000000000000001"/>
<circle cx="310" cy="290" r="1" fill="white" opacity="0.8"/>
<circle cx="372" cy="348" r="2" fill="white" opacity="0.4"/>
<circle cx="34" cy="6" r="1" fill="white" opacity="0.5"/>
<circle cx="96" cy="64" r="2" fill="white" opacity="0.6000000000000001"/>
<circle cx="158" cy="122" r="1" fill="white" opacity="0.7000000000000001"/>
<circle cx="220" cy="180" r="2" fill="white" opacity="0.8"/>
<circle cx="282" cy="238" r="1" fill="white" opacity="0.4"/>
<circle cx="344" cy="296" r="2" fill="white" opacity="0.5"/>
<circle cx="6" cy="354" r="1" fill="white" opacity="0.6000000000000001"/>
<circle cx="68" cy="12" r="2" fill="white" opacity="0.7000000000000001"/>
<circle cx="130" cy="70" r="1" fill="white" opacity="0.8"/>
<circle cx="192" cy="128" r="2" fill="white" opacity="0.4"/>
<circle cx="254" cy="186" r="1" fill="white" opacity="0.5"/>
<circle cx="316" cy="244" r="2" fill="white" opacity="0.6000000000000001"/>
<circle cx="378" cy="302" r="1" fill="white" opacity="0.7000000000000001"/>
<circle cx="40" cy="360" r="2" fill="white" opacity="0.8"/>
<circle cx="102" cy="18" r="1" fill="white" opacity="0.4"/>
<circle cx="164" cy="76" r="2" fill="white" opacity="0.5"/>
<circle cx="226" cy="134" r="1" fill="white" opacity="0.6000000000000001"/>
<circle cx="288" cy="192" r="2" fill="white" opacity="0.7000000000000001"/>
<circle cx="350" cy="250" r="1" fill="white" opacity="0.8"/>
<circle cx="12" cy="308" r="2" fill="white" opacity="0.4"/>
<circle cx="74" cy="366" r="1" fill="white" opacity="0.5"/>
<circle cx="136" cy="24" r="2" fill="white" opacity="0.6000000000000001"/>
<circle cx="198" cy="82" r="1" fill="white" opacity="0.7000000000000001"/>
<circle cx="260" cy="140" r="2" fill="white" opacity="0.8"/>
<circle cx="322" cy="198" r="1" fill="white" opacity="0.4"/>
<circle cx="384" cy="256" r="2" fill="white" opacity="0.5"/>
<circle cx="46" cy="314" r="1" fill="white" opacity="0.6000000000000001"/>
<circle cx="108" cy="372" r="2" fill="white" opacity="0.7000000000000001"/>
<circle cx="170" cy="30" r="1" fill="white" opacity="0.8"/>
<circle cx="232" cy="88" r="2" fill="white" opacity="0.4"/>
<circle cx="294" cy="146" r="1" fill="white" opacity="0.5"/>
<circle cx="356" cy="204" r="2" fill="white" opacity="0.6000000000000001"/>
<circle cx="18" cy="262" r="1" fill="white" opacity="0.7000000000000001"/>
<circle cx="80" cy="320" r="2" fill="white" opacity="0.8"/>
<circle cx="200" cy="200" r="165" fill="none" stroke="#00FFFF" stroke-width="3" opacity="0.25" stroke-dasharray="20,10"/>
<ellipse cx="115" cy="140" rx="45" ry="50" fill="#B87333" filter="url(#shadow)"/>
<ellipse cx="115" cy="140" rx="30" ry="35" fill="#FFB6C1"/>
<ellipse cx="115" cy="145" rx="18" ry="22" fill="#FF9999"/>
<ellipse cx="285" cy="140" rx="45" ry="50" fill="#B87333" filter="url(#shadow)"/>
<ellipse cx="285" cy="140" rx="30" ry="35" fill="#FFB6C1"/>
<ellipse cx="285" cy="145" rx="18" ry="22" fill="#FF9999"/>
<ellipse cx="200" cy="200" rx="110" ry="115" fill="#B87333" filter="url(#shadow)"/>
<ellipse cx="180" cy="140" rx="50" ry="30" fill="#D4A574" opacity="0.3"/>
<ellipse cx="200" cy="235" rx="70" ry="60" fill="#FFDAB9"/>
<ellipse cx="200" cy="250" rx="55" ry="40" fill="#DEB887" opacity="0.3"/>
<ellipse cx="162" cy="185" rx="22" ry="24" fill="#000" opacity="0.08"/>
<ellipse cx="238" cy="185" rx="22" ry="24" fill="#000" opacity="0.08"/>
<ellipse cx="162" cy="185" rx="18" ry="20" fill="white"/>
<circle cx="162" cy="185" r="12" fill="#3D2314"/>
<circle cx="162" cy="185" r="6" fill="#000"/>
<circle cx="166" cy="181" r="4" fill="white"/>
<ellipse cx="238" cy="185" rx="18" ry="20" fill="white"/>
<circle cx="238" cy="185" r="12" fill="#3D2314"/>
<circle cx="238" cy="185" r="6" fill="#000"/>
<circle cx="242" cy="181" r="4" fill="white"/>
<g>
            <ellipse cx="200" cy="230" rx="25" ry="18" fill="#8B4513"/>
            <ellipse cx="200" cy="230" rx="22" ry="15" fill="#A0522D"/>
            <ellipse cx="192" cy="230" rx="5" ry="7" fill="#5D2E0C"/>
            <ellipse cx="208" cy="230" rx="5" ry="7" fill="#5D2E0C"/>
        </g>
<path d="M170 260 Q200 285 230 260" stroke="#5D2E0C" stroke-width="4" fill="none"/>
<path d="M110 120 Q200 90 290 120" stroke="#E74C3C" stroke-width="12" fill="none"/><polygon points="105,125 90,160 115,150" fill="#E74C3C"/>

<g transform="translate(325, 15)">
            <rect width="65" height="22" rx="4" fill="#A0A0A0" opacity="0.9"/>
            <text x="32" y="15" font-size="8" fill="#FFF" text-anchor="middle" font-family="sans-serif" font-weight="bold">COMMON</text>
        </g>
        <g transform="translate(10, 15)">
            <rect width="45" height="22" rx="4" fill="#333" opacity="0.8"/>
            <text x="22" y="15" font-size="9" fill="#FFF" text-anchor="middle" font-family="sans-serif">Gen 1</text>
        </g>
</svg>