<svg width="400" height="400" viewBox="0 0 400 400" xmlns="http://www.w3.org/2000/svg">
<defs>
    <filter id="shadow" x="-20%" y="-20%" width="140%" height="140%">
        <feDropShadow dx="2" dy="4" stdDeviation="3" flood-opacity="0.3"/>
    </filter>
    <filter id="glow" x="-50%" y="-50%" width="200%" height="200%">
        <feGaussianBlur stdDeviation="8" result="blur"/>
        <feMerge><feMergeNode in="blur"/><feMergeNode in="SourceGraphic"/></feMerge>
    </filter>
    <linearGradient id="rainbow-body" x1="0%" y1="0%" x2="100%" y2="100%">
        <stop offset="0%" stop-color="#FF6B6B"/><stop offset="25%" stop-color="#FFE66D"/>
        <stop offset="50%" stop-color="#4ECDC4"/><stop offset="75%" stop-color="#45B7D1"/>
        <stop offset="100%" stop-color="#DDA0DD"/>
    </linearGradient>
    <radialGradient id="galaxy-body" cx="30%" cy="30%">
        <stop offset="0%" stop-color="#E6E6FA"/><stop offset="50%" stop-color="#9370DB"/>
        <stop offset="100%" stop-color="#1A0033"/>
    </radialGradient>
    <linearGradient id="holo-body" x1="0%" y1="0%" x2="100%" y2="100%">
        <stop offset="0%" stop-color="#FF00FF"/><stop offset="50%" stop-color="#00FFFF"/>
        <stop offset="100%" stop-color="#FFFF00"/>
    </linearGradient>
    <linearGradient id="sky-gradient" x1="0%" y1="0%" x2="0%" y2="100%">
        <stop offset="0%" stop-color="#87CEEB"/><stop offset="100%" stop-color="#E0F4FF"/>
    </linearGradient>
    <linearGradient id="grass-gradient" x1="0%" y1="0%" x2="0%" y2="100%">
        <stop offset="0%" stop-color="#90EE90"/><stop offset="100%" stop-color="#228B22"/>
    </linearGradient>
    <linearGradient id="sunset-gradient" x1="0%" y1="0%" x2="0%" y2="100%">
        <stop offset="0%" stop-color="#FF6B6B"/><stop offset="50%" stop-color="#FFE66D"/>
        <stop offset="100%" stop-color="#4ECDC4"/>
    </linearGradient>
    <linearGradient id="aurora-gradient" x1="0%" y1="0%" x2="100%" y2="100%">
        <stop offset="0%" stop-color="#0D1B2A"/><stop offset="30%" stop-color="#00FF7F"/>
        <stop offset="70%" stop-color="#FF00FF"/><stop offset="100%" stop-color="#0D1B2A"/>
    </linearGradient>
    <radialGradient id="multiverse-gradient" cx="50%" cy="50%">
        <stop offset="0%" stop-color="#FFD700"/><stop offset="40%" stop-color="#FF00FF"/>
        <stop offset="70%" stop-color="#00FFFF"/><stop offset="100%" stop-color="#000"/>
    </radialGradient>
    <linearGradient id="rift-gradient" x1="0%" y1="0%" x2="100%" y2="100%">
        <stop offset="0%" stop-color="#000"/><stop offset="30%" stop-color="#9400D3"/>
        <stop offset="50%" stop-color="#00FFFF"/><stop offset="70%" stop-color="#9400D3"/>
        <stop offset="100%" stop-color="#000"/>
    </linearGradient>
    <linearGradient id="heaven-gradient" x1="0%" y1="0%" x2="0%" y2="100%">
        <stop offset="0%" stop-color="#FFF"/><stop offset="50%" stop-color="#FFD700" stop-opacity="0.3"/>
        <stop offset="100%" stop-color="#F0F8FF"/>
    </linearGradient>
    <clipPath id="head-clip"><ellipse cx="200" cy="200" rx="110" ry="115"/></clipPath>
</defs>
<rect width="400" height="400" fill="#0D1B2A"/>
<circle cx="39" cy="301" r="1" fill="white" opacity="0.4"/>
<circle cx="78" cy="202" r="2" fill="white" opacity="0.5"/>
<circle cx="117" cy="103" r="1" fill="white" opacity="0.6000000000000001"/>
<circle cx="156" cy="4" r="2" fill="white" opacity="0.7000000000000001"/>
<circle cx="195" cy="305" r="1" fill="white" opacity="0.8"/>
<circle cx="234" cy="206" r="2" fill="white" opacity="0.4"/>
<circle cx="273" cy="107" r="1" fill="white" opacity="0.5"/>
<circle cx="312" cy="8" r="2" fill="white" opacity="0.6000000000000001"/>
<circle cx="351" cy="309" r="1" fill="white" opacity="0.7000000000000001"/>
<circle cx="390" cy="210" r="2" fill="white" opacity="0.8"/>
<circle cx="29" cy="111" r="1" fill="white" opacity="0.4"/>
<circle cx="68" cy="12" r="2" fill="white" opacity="0.5"/>
<circle cx="107" cy="313" r="1" fill="white" opacity="0.6000000000000001"/>
<circle cx="146" cy="214" r="2" fill="white" opacity="0.7000000000000001"/>
<circle cx="185" cy="115" r="1" fill="white" opacity="0.8"/>
<circle cx="224" cy="16" r="2" fill="white" opacity="0.4"/>
<circle cx="263" cy="317" r="1" fill="white" opacity="0.5"/>
<circle cx="302" cy="218" r="2" fill="white" opacity="0.6000000000000001"/>
<circle cx="341" cy="119" r="1" fill="white" opacity="0.7000000000000001"/>
<circle cx="380" cy="20" r="2" fill="white" opacity="0.8"/>
<circle cx="19" cy="321" r="1" fill="white" opacity="0.4"/>
<circle cx="58" cy="222" r="2" fill="white" opacity="0.5"/>
<circle cx="97" cy="123" r="1" fill="white" opacity="0.6000000000000001"/>
<circle cx="136" cy="24" r="2" fill="white" opacity="0.7000000000000001"/>
<circle cx="175" cy="325" r="1" fill="white" opacity="0.8"/>
<circle cx="214" cy="226" r="2" fill="white" opacity="0.4"/>
<circle cx="253" cy="127" r="1" fill="white" opacity="0.5"/>
<circle cx="292" cy="28" r="2" fill="white" opacity="0.6000000000000001"/>
<circle cx="331" cy="329" r="1" fill="white" opacity="0.7000000000000001"/>
<circle cx="370" cy="230" r="2" fill="white" opacity="0.8"/>
<circle cx="9" cy="131" r="1" fill="white" opacity="0.4"/>
<circle cx="48" cy="32" r="2" fill="white" opacity="0.5"/>
<circle cx="87" cy="333" r="1" fill="white" opacity="0.6000000000000001"/>
<circle cx="126" cy="234" r="2" fill="white" opacity="0.7000000000000001"/>
<circle cx="165" cy="135" r="1" fill="white" opacity="0.8"/>
<circle cx="204" cy="36" r="2" fill="white" opacity="0.4"/>
<circle cx="243" cy="337" r="1" fill="white" opacity="0.5"/>
<circle cx="282" cy="238" r="2" fill="white" opacity="0.6000000000000001"/>
<circle cx="321" cy="139" r="1" fill="white" opacity="0.7000000000000001"/>
<circle cx="360" cy="40" r="2" fill="white" opacity="0.8"/>
<circle cx="200" cy="200" r="165" fill="none" stroke="#00FFFF" stroke-width="3" opacity="0.25" stroke-dasharray="20,10"/>
<ellipse cx="115" cy="140" rx="45" ry="50" fill="#B87333" filter="url(#shadow)"/>
<ellipse cx="115" cy="140" rx="30" ry="35" fill="#FFB6C1"/>
<ellipse cx="115" cy="145" rx="18" ry="22" fill="#FF9999"/>
<ellipse cx="285" cy="140" rx="45" ry="50" fill="#B87333" filter="url(#shadow)"/>
<ellipse cx="285" cy="140" rx="30" ry="35" fill="#FFB6C1"/>
<ellipse cx="285" cy="145" rx="18" ry="22" fill="#FF9999"/>
<ellipse cx="200" cy="200" rx="110" ry="115" fill="#B87333" filter="url(#shadow)"/>
<ellipse cx="180" cy="140" rx="50" ry="30" fill="#D4A574" opacity="0.3"/>
<g clip-path="url(#head-clip)"><rect x="90" y="100" width="220" height="12" fill="#000" opacity="0.08" transform="rotate(-15 200 200)"/><rect x="90" y="135" width="220" height="12" fill="#000" opacity="0.08" transform="rotate(-15 200 200)"/><rect x="90" y="170" width="220" height="12" fill="#000" opacity="0.08" transform="rotate(-15 200 200)"/><rect x="90" y="205" width="220" height="12" fill="#000" opacity="0.08" transform="rotate(-15 200 200)"/><rect x="90" y="240" width="220" height="12" fill="#000" opacity="0.08" transform="rotate(-15 200 200)"/><rect x="90" y="275" width="220" height="12" fill="#000" opacity="0.08" transform="rotate(-15 200 200)"/></g>
<ellipse cx="200" cy="235" rx="70" ry="60" fill="#FFDAB9"/>
<ellipse cx="200" cy="250" rx="55" ry="40" fill="#DEB887" opacity="0.3"/>
<ellipse cx="162" cy="185" rx="22" ry="24" fill="#000" opacity="0.08"/>
<ellipse cx="238" cy="185" rx="22" ry="24" fill="#000" opacity="0.08"/>
<ellipse cx="162" cy="185" rx="18" ry="20" fill="white"/>
<circle cx="162" cy="185" r="12" fill="#3D2314"/>
<circle cx="162" cy="185" r="6" fill="#000"/>
<circle cx="166" cy="181" r="4" fill="white"/>
<ellipse cx="238" cy="185" rx="18" ry="20" fill="white"/>
<circle cx="238" cy="185" r="12" fill="#3D2314"/>
<circle cx="238" cy="185" r="6" fill="#000"/>
<circle cx="242" cy="181" r="4" fill="white"/>
<g>
            <ellipse cx="200" cy="230" rx="25" ry="18" fill="#8B4513"/>
            <ellipse cx="200" cy="230" rx="22" ry="15" fill="#A0522D"/>
            <ellipse cx="192" cy="230" rx="5" ry="7" fill="#5D2E0C"/>
            <ellipse cx="208" cy="230" rx="5" ry="7" fill="#5D2E0C"/>
        </g>
<path d="M170 260 Q200 285 230 260" stroke="#5D2E0C" stroke-width="4" fill="none"/>
<path d="M110 120 Q200 90 290 120" stroke="#E74C3C" stroke-width="12" fill="none"/><polygon points="105,125 90,160 115,150" fill="#E74C3C"/>

<g transform="translate(325, 15)">
            <rect width="65" height="22" rx="4" fill="#A0A0A0" opacity="0.9"/>
            <text x="32" y="15" font-size="8" fill="#FFF" text-anchor="middle" font-family="sans-serif" font-weight="bold">COMMON</text>
        </g>
        <g transform="translate(10, 15)">
            <rect width="45" height="22" rx="4" fill="#333" opacity="0.8"/>
            <text x="22" y="15" font-size="9" fill="#FFF" text-anchor="middle" font-family="sans-serif">Gen 1</text>
        </g>
</svg>